REM MD5 39a742d3f3d7416b3003ea269798c864
FILE "Moero!! Pro Yakyuu '95 - Double Header (Japan).bin" BINARY
  TRACK 01 MODE2/2352
    INDEX 01 00:00:00
  TRACK 02 AUDIO
    INDEX 00 20:37:16
    INDEX 01 20:39:16
  TRACK 03 AUDIO
    INDEX 00 22:10:28
    INDEX 01 22:12:28
REM LEADOUT 25:14:50
